<?xml version="1.0" encoding="UTF-8"?>
<svg id="Layer_1" data-name="Layer 1" xmlns="http://www.w3.org/2000/svg" viewBox="0 0 40 40">
  <defs>
    <style>
      .cls-1 {
        fill: #fff;
        fill-rule: evenodd;
        stroke-width: 0px;
      }
    </style>
  </defs>
  <path class="cls-1" d="m20.04.33C8.93.33,0,9.35,0,20.49c0,8.93,5.74,16.48,13.69,19.14.98.2,1.35-.45,1.35-.98,0-.45-.04-2.09-.04-3.73-5.57,1.19-6.72-2.42-6.72-2.42-.9-2.34-2.21-2.95-2.21-2.95-1.8-1.23.12-1.23.12-1.23,2.01.12,3.07,2.09,3.07,2.09,1.8,3.07,4.67,2.21,5.82,1.68.16-1.31.7-2.21,1.27-2.7-4.43-.45-9.1-2.21-9.1-9.96,0-2.21.78-4.02,2.05-5.41-.2-.49-.9-2.58.2-5.33,0,0,1.68-.53,5.49,2.09,1.64-.45,3.32-.66,5-.66s3.4.25,5,.66c3.81-2.62,5.49-2.09,5.49-2.09,1.11,2.79.41,4.84.2,5.33,1.31,1.39,2.05,3.2,2.05,5.41,0,7.75-4.67,9.47-9.14,9.96.74.61,1.35,1.84,1.35,3.73,0,2.7-.04,4.88-.04,5.53,0,.53.37,1.19,1.35.98,7.99-2.66,13.73-10.2,13.73-19.14C40.04,9.35,31.07.33,20.04.33Z"/>
</svg>