<svg width="18" height="18" viewBox="0 0 18 18" fill="none" xmlns="http://www.w3.org/2000/svg"><path fill-rule="evenodd" clip-rule="evenodd" d="M6 1C6 0.447715 5.55228 0 5 0C4.44772 0 4 0.447715 4 1H2C0.895431 1 0 1.89543 0 3V6V16C0 17.1046 0.89543 18 2 18H16C17.1046 18 18 17.1046 18 16V6V3C18 1.89543 17.1046 1 16 1H14C14 0.447715 13.5523 0 13 0C12.4477 0 12 0.447715 12 1H10C10 0.447715 9.55228 0 9 0C8.44772 0 8 0.447715 8 1H6ZM4 3C4 3.55228 4.44772 4 5 4C5.55228 4 6 3.55228 6 3H8C8 3.55228 8.44772 4 9 4C9.55228 4 10 3.55228 10 3H12C12 3.55228 12.4477 4 13 4C13.5523 4 14 3.55228 14 3H16V5H2V3H4ZM16 16V7H2V16H16ZM6 9V11H4V9H6ZM6 14V12H4V14H6ZM10 9V11H8V9H10ZM10 14V12H8V14H10ZM14 9V11H12V9H14ZM14 14V12H12V14H14Z" fill="#858585"/></svg>