<svg width="12" height="13" viewBox="0 0 12 13" fill="none" xmlns="http://www.w3.org/2000/svg">
<g clip-path="url(#clip0_6447_211993)">
<path fill-rule="evenodd" clip-rule="evenodd" d="M7.71763 6.50527C7.71761 6.61892 7.67251 6.72791 7.59226 6.80827L5.02477 9.37969C4.94406 9.45776 4.83597 9.50096 4.72377 9.49998C4.61158 9.49901 4.50425 9.45394 4.42491 9.37447C4.34557 9.29501 4.30057 9.18752 4.2996 9.07515C4.29862 8.96278 4.34175 8.85452 4.4197 8.77369L6.68465 6.50527L4.4197 4.23684C4.37883 4.1973 4.34623 4.15001 4.3238 4.09773C4.30138 4.04544 4.28957 3.9892 4.28908 3.9323C4.28858 3.87539 4.29941 3.81896 4.32093 3.76629C4.34244 3.71362 4.37422 3.66577 4.4144 3.62553C4.45457 3.58529 4.50235 3.55346 4.55494 3.53191C4.60753 3.51037 4.66388 3.49952 4.72069 3.50002C4.77751 3.50051 4.83366 3.51233 4.88587 3.53479C4.93808 3.55726 4.9853 3.5899 5.02477 3.63084L7.59226 6.20227C7.67251 6.28262 7.71761 6.39161 7.71763 6.50527Z" fill="#B3B3B3"/>
</g>
<defs>
<clipPath id="clip0_6447_211993">
<rect width="6" height="6" fill="white" transform="translate(3 3.5)"/>
</clipPath>
</defs>
</svg>
