<svg width="20" height="20" viewBox="0 0 20 20" fill="none" xmlns="http://www.w3.org/2000/svg">
<path fill-rule="evenodd" clip-rule="evenodd" d="M3.57974 3.58644C3.7359 3.43021 3.94766 3.34245 4.16846 3.34245C4.38927 3.34245 4.60103 3.43021 4.75719 3.58644L9.9974 8.8306L15.2376 3.58644C15.3144 3.50685 15.4063 3.44336 15.5079 3.39969C15.6095 3.35601 15.7188 3.33302 15.8293 3.33206C15.9399 3.3311 16.0495 3.35219 16.1519 3.39409C16.2542 3.43599 16.3472 3.49787 16.4254 3.57611C16.5036 3.65435 16.5654 3.7474 16.6073 3.84981C16.6491 3.95222 16.6702 4.06196 16.6692 4.17261C16.6683 4.28326 16.6453 4.39261 16.6017 4.49428C16.558 4.59595 16.4946 4.6879 16.4151 4.76477L11.1748 10.0089L16.4151 15.2531C16.5667 15.4103 16.6507 15.6208 16.6488 15.8393C16.6469 16.0578 16.5593 16.2668 16.4049 16.4213C16.2505 16.5758 16.0417 16.6634 15.8233 16.6653C15.605 16.6672 15.3947 16.5832 15.2376 16.4314L9.9974 11.1873L4.75719 16.4314C4.60014 16.5832 4.38979 16.6672 4.17146 16.6653C3.95313 16.6634 3.74428 16.5758 3.58989 16.4213C3.4355 16.2668 3.34792 16.0578 3.34602 15.8393C3.34413 15.6208 3.42806 15.4103 3.57974 15.2531L8.81995 10.0089L3.57974 4.76477C3.42363 4.6085 3.33594 4.39657 3.33594 4.1756C3.33594 3.95463 3.42363 3.74271 3.57974 3.58644Z" fill="#BF0020"/>
</svg>
