<?xml version="1.0" encoding="UTF-8"?>
<svg id="Layer_1" data-name="Layer 1" xmlns="http://www.w3.org/2000/svg" viewBox="0 0 40 40">
  <defs>
    <style>
      .cls-1 {
        fill: #fff;
        stroke-width: 0px;
      }
    </style>
  </defs>
  <g id="_图层_2" data-name="图层 2">
    <g id="Discord_Logos" data-name="Discord Logos">
      <g id="Discord_Logo_-_Large_-_White" data-name="Discord Logo - Large - White">
        <path class="cls-1" d="m33.89,7.38c-2.64-1.23-5.41-2.08-8.24-2.55-.38.69-.76,1.42-1.07,2.14-3.02-.47-6.13-.47-9.15,0-.31-.72-.66-1.45-1.07-2.14-2.86.47-5.63,1.35-8.24,2.55C.89,15.12-.53,22.64.16,30.07H.16c3.05,2.27,6.48,3.96,10.13,5.1.82-1.1,1.54-2.27,2.17-3.49-1.2-.44-2.33-.98-3.43-1.64.28-.22.57-.41.85-.63,6.42,3.02,13.84,3.02,20.23,0,.28.22.57.44.85.63-1.1.63-2.23,1.2-3.43,1.64.63,1.23,1.35,2.39,2.17,3.49,3.65-1.1,7.08-2.83,10.13-5.06h0c.82-8.65-1.42-16.11-5.95-22.71ZM13.38,25.51c-1.98,0-3.62-1.79-3.62-4s1.57-4,3.59-4,3.65,1.79,3.62,4-1.6,4-3.59,4Zm13.28,0c-1.98,0-3.59-1.79-3.59-4s1.57-4,3.59-4,3.62,1.79,3.59,4-1.57,4-3.59,4Z"/>
      </g>
    </g>
  </g>
</svg>