<svg xmlns="http://www.w3.org/2000/svg" xmlns:xlink="http://www.w3.org/1999/xlink" width="15" height="19"><defs><path id="a" d="M0 .7h18v4.6H0z"/><path id="c" d="M.8.7h18v15H.8z"/><path id="e" d="M0 .7h18v4.6H0z"/></defs><g fill="none" fill-rule="evenodd" transform="rotate(90 8 7.5)"><g transform="translate(.8 5)"><mask id="b" fill="#fff"><use xlink:href="#a"/></mask><path fill="#FFF" d="M14 4.2A1.1 1.1 0 0 1 13 3c0-.6.4-1.1 1-1.1A1.1 1.1 0 0 1 15.3 3 1.1 1.1 0 0 1 14 4.2m3.3-1.7h-1.2C16 1.5 15.1.7 14.1.7s-2 .8-2.2 1.8H.6A.6.6 0 0 0 0 3c0 .3.3.6.6.6h11.3c.2 1 1.1 1.7 2.2 1.7 1 0 1.9-.7 2.1-1.7h1.2c.3 0 .6-.3.6-.6a.6.6 0 0 0-.6-.5" mask="url(#b)"/></g><mask id="d" fill="#fff"><use xlink:href="#c"/></mask><path fill="#FFF" d="M14.9 4.1A1.1 1.1 0 0 1 13.7 3c0-.7.5-1.2 1.2-1.2a1.1 1.1 0 0 1 1 1.2A1.1 1.1 0 0 1 15 4m3.3-1.7H17C16.8 1.4 16 .7 15 .7s-2 .7-2.2 1.7H1.4a.6.6 0 0 0-.6.6c0 .3.3.5.6.5h11.3c.2 1 1.1 1.8 2.2 1.8 1 0 1.9-.8 2.1-1.8h1.2c.3 0 .6-.2.6-.5a.6.6 0 0 0-.6-.6" mask="url(#d)" transform="rotate(180 9.8 3)"/><path fill="#FFF" d="M14.9 4.1A1.1 1.1 0 0 1 13.7 3c0-.7.5-1.2 1.2-1.2a1.1 1.1 0 0 1 1 1.2A1.1 1.1 0 0 1 15 4m3.3-1.7H17C16.8 1.4 16 .7 15 .7s-2 .7-2.2 1.7H1.4a.6.6 0 0 0-.6.6c0 .3.3.5.6.5h11.3c.2 1 1.1 1.8 2.2 1.8 1 0 1.9-.8 2.1-1.8h1.2c.3 0 .6-.2.6-.5a.6.6 0 0 0-.6-.6" mask="url(#d)" transform="rotate(180 9.8 3)"/><g mask="url(#d)"><g transform="translate(.8 10)"><mask id="f" fill="#fff"><use xlink:href="#e"/></mask><path fill="#FFF" d="M4.4 4.2A1.1 1.1 0 0 1 3.2 3c0-.6.5-1.1 1.2-1.1s1 .5 1 1.1c0 .7-.4 1.2-1 1.2m13-1.7H6.5c-.2-1-1-1.8-2.1-1.8-1 0-2 .8-2.2 1.8H.6A.6.6 0 0 0 0 3c0 .3.3.6.6.6h1.6c.2 1 1.1 1.7 2.2 1.7 1 0 1.9-.7 2.1-1.7h11c.2 0 .5-.3.5-.6a.6.6 0 0 0-.6-.5" mask="url(#f)"/></g></g></g></svg>