<?xml version="1.0" encoding="UTF-8"?>
<svg id="Layer_1" data-name="Layer 1" xmlns="http://www.w3.org/2000/svg" viewBox="0 0 40 40">
  <defs>
    <style>
      .cls-1 {
        fill-rule: evenodd;
      }

      .cls-1, .cls-2 {
        fill: #fff;
        stroke-width: 0px;
      }
    </style>
  </defs>
  <g id="Icons_System_chat" data-name="Icons/System/chat">
    <path id="Color" class="cls-1" d="m6.85,34.07l5.98-2.93c.43-.14.88-.29,1.31-.14,1.76.43,3.66.74,5.55.74,9.64,0,17.23-6.12,17.23-13.45s-7.6-13.45-17.23-13.45S2.45,10.97,2.45,18.28c0,3.37,1.6,6.43,4.39,8.91.43.43.74,1.03.59,1.76l-.59,5.11Zm-.58,3.96c-1.31.59-2.77-.43-2.63-1.91l1.03-7.45C1.59,25.73,0,22.09,0,18.15,0,8.95,9.06,1.8,20.02,1.8s19.98,7.29,19.98,16.35-9.06,16.35-20.02,16.35c-1.91,0-3.8-.14-5.55-.59l-8.16,4.12Z"/>
  </g>
  <path class="cls-2" d="m15.47,25.89c-.43,0-.74-.14-1.03-.43l-5.98-5.84c-.29-.29-.43-.59-.43-1.03s.14-.74.43-1.03l5.98-5.84c.29-.29.59-.43,1.03-.43s.74.14,1.03.43.43.59.43,1.03-.14.74-.43,1.03l-4.81,4.81,4.81,4.81c.59.59.59,1.46,0,2.05-.14.29-.59.43-1.03.43.14,0,0,0,0,0Z"/>
  <path class="cls-2" d="m24.38,25.89c-.43,0-.74-.14-1.03-.43-.59-.59-.59-1.46,0-2.05l4.81-4.81-4.81-4.81c-.29-.29-.43-.59-.43-1.03s.14-.74.43-1.03.59-.43,1.03-.43h0c.43,0,.74.14,1.03.43l5.98,5.84c.29.29.43.59.43,1.03s-.14.74-.43,1.03l-5.98,5.84c-.3.29-.59.43-1.03.43Z"/>
</svg>