<svg width="32" height="32" xmlns="http://www.w3.org/2000/svg" xmlns:xlink="http://www.w3.org/1999/xlink"><defs><path d="M16 32a16 16 0 1 0 0-32 16 16 0 0 0 0 32Z" id="a"/><path d="M16 32a16 16 0 1 0 0-32 16 16 0 0 0 0 32Z" id="d"/><linearGradient x1="17.4%" y1="-17.7%" x2="71.5%" y2="86.9%" id="b"><stop stop-color="#B6372C" offset="0%"/><stop stop-color="#DD5044" offset="100%"/></linearGradient></defs><g fill="none" fill-rule="evenodd"><path d="M16 32a16 16 0 1 0 0-32 16 16 0 0 0 0 32Z" fill="#DD5044" fill-rule="nonzero"/><mask id="c" fill="#fff"><use xlink:href="#a"/></mask><path fill="url(#b)" fill-rule="nonzero" mask="url(#c)" d="m16 10.4 4.7 4.1 2.8.2 1.6-2.7 8.2 8-3.3 8.4-11.6 4.5L6.5 21.2l-1-6.5 2.7-4 2.5-.9h2.2z"/><g><mask id="e" fill="#fff"><use xlink:href="#d"/></mask><g mask="url(#e)"><path fill="#EFEFEF" d="M23.3 14.5h-2.5v1.8h2.5V19H25v-2.6h2.6v-1.8H25V12h-1.8z"/><path d="M7.5 17.6a4.4 4.4 0 0 1 0-3c.2-.7.5-1.3 1-1.7a4.2 4.2 0 0 1 4.2-1.2c.6.2 1.2.5 1.6 1l1.3-1.4.7-.7a7 7 0 0 0-7.6-1.3 7.3 7.3 0 0 0-3.6 10A7.3 7.3 0 0 0 9.7 23c1.2.3 2.4.3 3.6 0a6.5 6.5 0 0 0 4.8-4.5 8.5 8.5 0 0 0 .1-3.9h-6.7v2.8h4c-.2 1-.8 1.8-1.5 2.3a4.6 4.6 0 0 1-3.3.6c-.6-.1-1.1-.3-1.6-.7a4.5 4.5 0 0 1-1.6-2Z" fill="#000" fill-rule="nonzero"/><path d="M7.5 17.6a4.4 4.4 0 0 1 0-3c.2-.7.5-1.3 1-1.7a4.2 4.2 0 0 1 4.2-1.2c.6.2 1.2.5 1.6 1l1.3-1.4.7-.7a7 7 0 0 0-7.6-1.3 7.3 7.3 0 0 0-3.6 10A7.3 7.3 0 0 0 9.7 23c1.2.3 2.4.3 3.6 0a6.5 6.5 0 0 0 4.8-4.5 8.5 8.5 0 0 0 .1-3.9h-6.7v2.8h4c-.2 1-.8 1.8-1.5 2.3a4.6 4.6 0 0 1-3.3.6c-.6-.1-1.1-.3-1.6-.7a4.5 4.5 0 0 1-1.6-2Z" fill="#EFEFEF"/></g></g></g></svg>