<svg width="24" height="24" viewBox="0 0 24 24" fill="none" xmlns="http://www.w3.org/2000/svg">
<path fill-rule="evenodd" clip-rule="evenodd" d="M8 2C7.44771 2 7 2.44772 7 3C7 3.55228 7.44771 4 8 4H9V10.3591C9 10.5675 8.93488 10.7707 8.81373 10.9403L4.60945 16.8263C4.21308 17.3812 4 18.0461 4 18.7281C4.00001 20.5351 5.4649 22 7.27193 22H16.7281C18.5351 22 20 20.5351 20 18.7281C20 18.0461 19.7869 17.3812 19.3905 16.8263L15.1863 10.9403C15.0651 10.7707 15 10.5675 15 10.3591V4H16C16.5523 4 17 3.55228 17 3C17 2.44772 16.5523 2 16 2H8ZM11 10.3591V4H13V10.3591C13 10.9843 13.1954 11.594 13.5588 12.1028L15.6282 15H8.37176L10.4412 12.1028C10.8046 11.594 11 10.9843 11 10.3591Z" fill="white"/>
</svg>
