<?xml version="1.0" encoding="UTF-8"?>
<svg id="Layer_1" data-name="Layer 1" xmlns="http://www.w3.org/2000/svg" viewBox="0 0 40 40">
  <defs>
    <style>
      .cls-1 {
        fill: #fff;
        stroke-width: 0px;
      }
    </style>
  </defs>
  <path id="SVGID" class="cls-1" d="m.52,39.28h8.92V13.58H.52v25.7ZM30.3,12.66c-3.67,0-5.77,1.31-8.13,4.33v-3.41h-8.92v25.84h8.92v-14.16c0-3.02,1.44-5.9,4.72-5.9s4.2,2.89,4.2,5.77v14.03h8.92v-14.56c0-10.1-6.03-11.93-9.7-11.93ZM4.98.59C2.36.46.13,2.56,0,5.18c.13,2.62,2.36,4.72,4.98,4.59,2.62.13,4.85-1.97,4.98-4.59-.13-2.62-2.36-4.72-4.98-4.59Z"/>
</svg>