<svg width="16" height="16" viewBox="0 0 16 16" fill="none" xmlns="http://www.w3.org/2000/svg"><path fill-rule="evenodd" clip-rule="evenodd" d="M0 0.8C0 0.587827 0.0848478 0.384344 0.235878 0.234315C0.386908 0.0842858 0.591748 3.29155e-07 0.805337 3.29155e-07H1.77496C2.13932 -0.000231747 2.493 0.122264 2.77823 0.347483C3.06346 0.572702 3.26339 0.887335 3.34537 1.24L3.79958 3.2H13.5844C13.9568 3.20007 14.3242 3.28566 14.6578 3.45009C14.9914 3.61452 15.2823 3.85334 15.5076 4.14789C15.7329 4.44244 15.8867 4.78476 15.9568 5.14809C15.988 5.30982 16.0023 5.47377 15.9997 5.63736C15.998 5.74377 15.9892 5.85003 15.9734 5.95542C15.9588 6.05199 15.9383 6.14783 15.9118 6.2424L14.7932 10.2424C14.6519 10.7476 14.348 11.193 13.9278 11.5104C13.5077 11.8278 12.9945 11.9997 12.4666 12H6.11251C5.56624 12 5.0361 11.8161 4.60859 11.4783C4.18107 11.1405 3.88142 10.6687 3.75851 10.14L1.77496 1.6H0.805337C0.591748 1.6 0.386908 1.51571 0.235878 1.36569C0.0848478 1.21566 0 1.01217 0 0.8ZM4.17164 4.8L5.32891 9.78C5.36984 9.95607 5.46957 10.1132 5.61185 10.2258C5.75414 10.3383 5.9306 10.3998 6.11251 10.4H12.4658C12.6417 10.3999 12.8128 10.3426 12.9528 10.2369C13.0929 10.1311 13.1942 9.98275 13.2413 9.8144L14.3608 5.8144C14.3941 5.69552 14.3992 5.57061 14.3758 5.44942C14.3525 5.32823 14.3012 5.21406 14.226 5.11583C14.1508 5.0176 14.0538 4.93798 13.9425 4.88319C13.8312 4.8284 13.7086 4.79993 13.5844 4.8H4.17164ZM4.02668 14.4C4.02668 13.9757 4.19638 13.5687 4.49844 13.2686C4.8005 12.9686 5.21018 12.8 5.63736 12.8C6.06453 12.8 6.47422 12.9686 6.77628 13.2686C7.07834 13.5687 7.24803 13.9757 7.24803 14.4C7.24803 14.8243 7.07834 15.2313 6.77628 15.5314C6.47422 15.8314 6.06453 16 5.63736 16C5.21018 16 4.8005 15.8314 4.49844 15.5314C4.19638 15.2313 4.02668 14.8243 4.02668 14.4ZM11.2747 14.4C11.2747 13.9757 11.4444 13.5687 11.7465 13.2686C12.0485 12.9686 12.4582 12.8 12.8854 12.8C13.3126 12.8 13.7222 12.9686 14.0243 13.2686C14.3264 13.5687 14.4961 13.9757 14.4961 14.4C14.4961 14.8243 14.3264 15.2313 14.0243 15.5314C13.7222 15.8314 13.3126 16 12.8854 16C12.4582 16 12.0485 15.8314 11.7465 15.5314C11.4444 15.2313 11.2747 14.8243 11.2747 14.4Z" fill="#FF0004"/></svg>