<svg width="16" height="16" viewBox="0 0 16 16" fill="none" xmlns="http://www.w3.org/2000/svg">
<path fill-rule="evenodd" clip-rule="evenodd" d="M7.33678 2.66554C6.81116 2.66554 6.29068 2.76908 5.80506 2.97024C5.31944 3.1714 4.8782 3.46625 4.50653 3.83795C4.13485 4.20964 3.84002 4.65091 3.63888 5.13656C3.43773 5.6222 3.3342 6.14272 3.3342 6.66838C3.3342 7.19403 3.43773 7.71455 3.63888 8.20019C3.84002 8.68584 4.13485 9.12711 4.50653 9.4988C4.8782 9.8705 5.31944 10.1653 5.80506 10.3665C6.29068 10.5677 6.81116 10.6712 7.33678 10.6712C8.39834 10.6712 9.41641 10.2495 10.167 9.4988C10.9177 8.74813 11.3394 7.72999 11.3394 6.66838C11.3394 5.60676 10.9177 4.58862 10.167 3.83795C9.41641 3.08727 8.39834 2.66554 7.33678 2.66554ZM2 6.66838C2.00012 5.81901 2.20294 4.98195 2.59161 4.22674C2.98027 3.47154 3.54356 2.82001 4.23465 2.32629C4.58411 2.07664 4.96115 1.87099 5.35718 1.71279C5.54633 1.63723 5.7398 1.5725 5.93668 1.51898C6.14277 1.46294 6.35259 1.41918 6.56506 1.38813C6.66623 1.37334 6.76765 1.36149 6.8692 1.35256C6.92627 1.34754 6.98338 1.34344 7.0405 1.34026C7.10664 1.33658 7.17279 1.33414 7.23893 1.33293C7.2864 1.33206 7.33385 1.33182 7.38129 1.33222C7.42268 1.33256 7.46405 1.33339 7.5054 1.3347C7.68064 1.34024 7.85547 1.35441 8.02926 1.37715C8.38103 1.42319 8.72853 1.50434 9.06646 1.62012C9.86993 1.8954 10.5961 2.35848 11.1846 2.97087C11.7731 3.58326 12.207 4.32728 12.4502 5.14108C12.6933 5.95488 12.7388 6.81498 12.5827 7.64987C12.4266 8.48477 12.0736 9.27036 11.5528 9.94135L14.4794 12.8681C14.6009 12.9939 14.6682 13.1624 14.6666 13.3374C14.6651 13.5123 14.595 13.6796 14.4713 13.8033C14.3476 13.927 14.1803 13.9972 14.0054 13.9987C13.8305 14.0002 13.6619 13.933 13.5361 13.8114L10.6096 10.8847C9.8207 11.4972 8.8758 11.876 7.88231 11.9781C6.88883 12.0802 5.88664 11.9015 4.9897 11.4622C4.09276 11.023 3.33706 10.3408 2.80854 9.49337C2.28002 8.64591 1.99989 7.66715 2 6.66838Z" fill="#FF0004"/>
</svg>
