<?xml version="1.0" encoding="UTF-8"?>
<svg id="Layer_1" data-name="Layer 1" xmlns="http://www.w3.org/2000/svg" viewBox="0 0 40 40">
  <defs>
    <style>
      .cls-1 {
        fill: #fff;
        stroke-width: 0px;
      }
    </style>
  </defs>
  <path class="cls-1" d="m39.74,15.47c0-1.69-.26-3.39-.78-4.95-.39-1.95-1.95-3.52-3.91-3.91-1.04-.26-2.08-.39-3.13-.39-2.35-.13-5.34-.26-8.47-.39-4.43-.13-8.99,0-13.55.26-1.56,0-3.13.13-4.56.39-2.35.26-4.17,2.08-4.56,4.3-.13.91-.26,1.82-.39,2.74-.39,3-.39,5.99-.39,8.99,0,2.21.26,4.3.78,6.38.39,2.35,2.21,4.04,4.56,4.43,1.43.26,2.87.39,4.43.52,2.48.13,4.82.13,7.3.26l2.87.13h0c3.78,0,7.82-.13,11.99-.39,1.17,0,2.21-.26,3.39-.52,2.08-.52,3.52-2.08,3.91-4.17.52-2.61.78-5.34.78-7.95-.13-2.21-.13-4.17-.26-5.73Zm-13.29,4.95l-10.03,5.86c-.13,0-.26.13-.26.13-.13,0-.26,0-.26-.13-.26-.13-.26-.39-.26-.52v-11.6c0-.26.13-.39.26-.52.26-.13.39-.13.65,0l10.03,5.73c.26.13.39.39.26.52-.13.26-.13.39-.39.52Z"/>
</svg>